<?xml version="1.0" encoding="UTF-8" standalone="no"?>
<svg
   width="1280"
   height="1280"
   id="screenshot-8b3458a4-675f-80c8-8006-3d4cf69cfa6b"
   viewBox="-100 -100 1280 1280"
   fill="none"
   version="1.1"
   sodipodi:docname="jnt-brand-icon-0.0.2.svg"
   inkscape:export-filename="jnt-brand-icon-0.2.1.svg"
   inkscape:export-xdpi="96"
   inkscape:export-ydpi="96"
   xmlns:inkscape="http://www.inkscape.org/namespaces/inkscape"
   xmlns:sodipodi="http://sodipodi.sourceforge.net/DTD/sodipodi-0.dtd"
   xmlns="http://www.w3.org/2000/svg"
   xmlns:svg="http://www.w3.org/2000/svg">
  <defs
     id="defs5" />
  <sodipodi:namedview
     id="namedview5"
     pagecolor="#ffffff"
     bordercolor="#000000"
     borderopacity="0.25"
     inkscape:showpageshadow="2"
     inkscape:pageopacity="0.0"
     inkscape:pagecheckerboard="false"
     inkscape:deskcolor="#d1d1d1">
    <inkscape:page
       x="0"
       y="0"
       width="1280"
       height="1280"
       id="page2"
       margin="0"
       bleed="0" />
  </sodipodi:namedview>
  <g
     id="shape-8b3458a4-675f-80c8-8006-3d4cf69cfa6b">
    <g
       class="frame-container-wrapper"
       id="g5">
      <g
         class="frame-container-blur"
         id="g4"
         style="display:inline">
        <g
           class="frame-container-shadows"
           id="g3"
           style="display:inline">
          <g
             fill="none"
             id="g2"
             style="display:inline">
            <g
               class="fills"
               id="fills-8b3458a4-675f-80c8-8006-3d4cf69cfa6b">
              <rect
                 width="1080"
                 height="1080"
                 class="frame-background"
                 x="0"
                 style="display:inline;fill:#ffffff;fill-opacity:0"
                 ry="0"
                 rx="0"
                 y="0"
                 id="rect1" />
            </g>
            <g
               class="frame-children"
               id="g1">
              <g
                 id="shape-c07b94ec-6abf-804a-8006-3d57fe8e4b14"
                 style="display:inline">
                <g
                   class="fills"
                   id="fills-c07b94ec-6abf-804a-8006-3d57fe8e4b14">
                  <path
                     d="m 358.109,134.115 c 5.072,1.667 8.02,4.727 10.248,10.637 4.382,11.623 8.863,25.512 8.299,25.725 -0.345,0.131 -7.031,2.552 -14.858,5.381 -7.827,2.829 -19.093,6.911 -25.036,9.072 -5.943,2.161 -13.694,4.946 -17.226,6.189 l -6.42,2.26 -1.078,-2.956 c -0.593,-1.626 -2.773,-7.703 -4.846,-13.503 l -3.767,-10.547 -0.258,-4.244 -0.259,-4.244 1.175,-2.731 c 1.319,-3.067 4.843,-6.623 7.807,-7.877 1.07,-0.453 9.89,-3.666 19.601,-7.141 l 17.657,-6.319 3.426,-0.198 c 1.966,-0.113 4.325,0.098 5.535,0.496 z m 140.463,20.726 c 0.435,0.115 2.926,0.521 5.535,0.901 l 4.743,0.691 -0.13,1.279 c -0.241,2.355 -9.096,59.199 -9.245,59.349 -0.169,0.169 -8.234,-1.1 -12.363,-1.946 -4.951,-1.013 -7.422,-4.825 -6.775,-10.449 1.309,-11.361 6.834,-44.834 7.626,-46.201 0.503,-0.869 1.709,-2.115 2.678,-2.769 l 1.763,-1.188 2.689,0.061 c 1.479,0.034 3.045,0.156 3.479,0.272 z m 23.455,3.639 c 0.29,0.115 12.268,1.987 26.617,4.16 14.349,2.173 37,5.627 50.335,7.674 13.335,2.048 36.697,5.618 51.916,7.934 29.361,4.467 32.546,4.956 67.202,10.299 18.956,2.923 44.994,6.987 50.73,7.918 0.943,0.152 1.713,0.344 1.713,0.425 0,0.977 -2.604,18.078 -7.961,52.274 -0.635,4.06 -1.322,7.572 -1.525,7.804 -0.203,0.232 -15.644,-1.992 -34.313,-4.942 -34.807,-5.5 -42.796,-6.382 -47.898,-5.287 -4.722,1.013 -9.466,3.62 -12.985,7.137 -6.219,6.213 -6.532,7.362 -11.765,43.113 -0.863,5.889 -2.065,13.794 -2.672,17.564 -0.607,3.77 -1.677,10.533 -2.378,15.029 -1.404,9.008 -9.131,58.538 -12.404,79.511 -1.145,7.332 -3.036,19.316 -4.203,26.63 -1.168,7.315 -2.383,15.079 -2.701,17.254 -0.318,2.176 -0.751,4.146 -0.963,4.378 -0.408,0.449 -13.861,2.139 -22.019,2.766 l -4.875,0.375 10e-4,-1.254 c 0,-0.69 1.531,-11.103 3.401,-23.139 1.871,-12.036 4.249,-27.342 5.286,-34.013 1.036,-6.671 4.012,-25.687 6.612,-42.259 2.601,-16.572 4.729,-31.124 4.729,-32.339 v -2.21 l -1.541,-1.541 -1.541,-1.542 h -2.14 -2.14 l -1.608,1.45 -1.607,1.451 -6.279,39.813 c -12.766,80.952 -15.204,96.059 -15.56,96.414 -0.15,0.15 -4.717,0.571 -10.15,0.934 -14.816,0.991 -16.468,1.043 -16.467,0.511 10e-4,-0.748 7.48,-49.537 11.322,-73.865 8.973,-56.814 10.428,-66.128 11.912,-76.2 0.875,-5.945 3.102,-20.302 4.949,-31.903 4.222,-26.525 4.224,-26.541 3.251,-31.201 -1.979,-9.487 -8.098,-16.437 -17.327,-19.682 -3.046,-1.071 -11.058,-2.467 -37.824,-6.589 -22.649,-3.489 -27.37,-4.276 -27.714,-4.62 -0.332,-0.333 1.098,-10.806 4.555,-33.355 1.201,-7.831 2.574,-17.082 3.052,-20.559 l 0.869,-6.321 0.79,-0.103 c 0.435,-0.057 1.028,-0.01 1.318,0.106 z m -142.313,18.309 c 0.124,0.362 0.704,1.949 1.288,3.527 0.585,1.578 1.01,2.92 0.944,2.983 -0.121,0.116 -10.95,4.113 -29.108,10.745 -5.508,2.011 -15.557,5.685 -22.33,8.163 -6.773,2.479 -12.482,4.507 -12.685,4.507 -0.204,0 -0.8,-1.364 -1.325,-3.032 -0.525,-1.668 -1.068,-3.329 -1.207,-3.692 -0.138,-0.362 0.025,-0.659 0.362,-0.659 0.338,0 5.759,-1.886 12.047,-4.191 6.289,-2.304 19.261,-7.029 28.827,-10.499 9.567,-3.47 18.646,-6.804 20.177,-7.409 l 2.784,-1.101 z m 5.72,16.316 0.868,2.212 -0.656,0.41 c -0.361,0.227 -3.147,1.282 -6.191,2.346 -3.044,1.065 -8.974,3.195 -13.177,4.734 -36.074,13.212 -44.397,16.125 -44.797,15.677 -0.507,-0.566 -1.644,-3.977 -1.405,-4.216 0.19,-0.19 6.73,-2.587 28.545,-10.462 6.957,-2.512 17.675,-6.444 23.816,-8.739 6.142,-2.295 11.383,-4.173 11.647,-4.173 0.265,0 0.872,0.995 1.35,2.211 z m 403.248,5.981 c 4.642,0.779 6.449,1.82 7.815,4.501 1.269,2.49 1.186,4.137 -0.899,17.807 -2.027,13.288 -3.734,25.182 -4.259,29.671 -0.498,4.259 -2.078,6.798 -5.194,8.342 l -2.579,1.279 -5.242,-0.842 c -2.883,-0.464 -5.324,-0.924 -5.424,-1.025 -0.1,-0.1 1.434,-10.738 3.408,-23.639 1.975,-12.901 4.023,-26.482 4.551,-30.18 l 0.961,-6.723 1.344,0.054 c 0.739,0.029 3.222,0.369 5.518,0.755 z m -399.9,3.912 1.103,2.612 -3.502,1.147 c -3.272,1.071 -7.656,2.656 -31.173,11.279 -15.435,5.659 -29.815,10.826 -30.133,10.826 -0.416,0 -1.699,-4.714 -1.372,-5.042 0.146,-0.146 8.42,-3.205 18.388,-6.799 23.057,-8.312 38.965,-14.123 42.52,-15.531 1.533,-0.607 2.849,-1.104 2.926,-1.104 0.077,0 0.636,1.175 1.243,2.612 z m 4.839,13.236 c 0.664,2.063 1.112,3.846 0.994,3.963 -0.583,0.583 -62.93,22.903 -63.976,22.903 -0.634,0 -2.837,-5.102 -2.837,-6.569 0,-0.414 1.197,-1.118 2.767,-1.628 5.234,-1.701 55.425,-19.871 61.031,-22.095 l 0.814,-0.323 z m 3.506,10.543 c 0.137,0.222 1.097,2.858 2.133,5.858 1.036,3 3.627,10.32 5.757,16.265 2.13,5.946 6.128,17.336 8.883,25.312 2.755,7.976 8.015,23.045 11.688,33.486 3.673,10.441 7.817,22.306 9.209,26.366 1.392,4.061 4.712,13.553 7.377,21.094 2.666,7.54 6.577,18.693 8.693,24.784 4.937,14.212 9.859,28.2 16.883,47.987 10.158,28.614 11.475,32.453 11.22,32.708 -0.243,0.244 -16.381,-1.16 -18.693,-1.625 l -1.136,-0.229 -1.062,-3.035 c -0.583,-1.669 -2.525,-7.187 -4.315,-12.263 -1.791,-5.075 -5.943,-16.94 -9.229,-26.366 -3.285,-9.426 -8.142,-23.308 -10.792,-30.849 -2.651,-7.541 -6.209,-17.745 -7.907,-22.675 -1.698,-4.931 -5.494,-15.846 -8.434,-24.257 -2.94,-8.411 -6.96,-19.92 -8.933,-25.576 -5.482,-15.715 -14.74,-42.021 -21.97,-62.424 -3.585,-10.116 -6.517,-18.569 -6.517,-18.786 0,-0.217 0.674,-0.529 1.499,-0.695 0.824,-0.165 4.625,-1.466 8.447,-2.892 3.822,-1.425 7.061,-2.41 7.199,-2.188 z m -22.146,8.545 c 3.127,8.703 8.284,23.284 10.025,28.344 1.248,3.625 4.684,13.473 7.635,21.884 2.951,8.411 6.51,18.615 7.908,22.675 1.399,4.06 4.789,13.79 7.535,21.621 2.745,7.83 7.527,21.475 10.628,30.321 3.1,8.846 6.9,19.762 8.445,24.257 1.543,4.496 5.215,15.056 8.158,23.467 2.943,8.411 6.617,18.97 8.164,23.466 1.547,4.495 4.253,12.267 6.013,17.27 l 3.201,9.096 h -0.766 c -0.945,0 -23.058,-3.64 -23.221,-3.823 -0.171,-0.192 -8.12,-22.964 -15.969,-45.746 -17.908,-51.982 -21.397,-62.047 -24.313,-70.135 -1.726,-4.785 -4.586,-12.853 -6.356,-17.929 -1.769,-5.076 -4.883,-13.974 -6.919,-19.775 -2.035,-5.801 -5.558,-15.886 -7.828,-22.411 -2.27,-6.526 -6.034,-17.32 -8.365,-23.986 -2.33,-6.667 -4.067,-12.273 -3.86,-12.459 0.207,-0.185 2.393,-0.995 4.857,-1.799 2.464,-0.804 6.576,-2.257 9.137,-3.23 5.206,-1.976 5.556,-2.042 5.891,-1.108 z m -23.383,14.25 c 1.965,6.054 7.181,21.116 15.746,45.47 2.651,7.541 6.562,18.694 8.691,24.784 2.127,6.091 6.275,17.956 9.216,26.367 2.942,8.411 8.163,23.479 11.604,33.485 3.441,10.007 9.016,26.143 12.391,35.859 9.625,27.713 12.511,36.425 12.177,36.76 -0.171,0.17 -4.885,-0.799 -10.475,-2.154 l -10.163,-2.464 -3.106,-9.084 c -1.708,-4.996 -7.952,-23.084 -13.875,-40.196 -5.924,-17.112 -14.409,-41.673 -18.857,-54.579 -4.447,-12.907 -10.724,-31.06 -13.948,-40.341 -7.024,-20.222 -15.407,-44.401 -17.246,-49.744 -0.733,-2.127 -1.126,-4.046 -0.874,-4.265 0.251,-0.22 2.829,-1.187 5.728,-2.15 2.899,-0.962 6.298,-2.187 7.554,-2.722 1.256,-0.534 2.561,-0.966 2.899,-0.959 0.339,0.007 1.48,2.677 2.538,5.933 z m 214.605,105.147 2.012,0.243 -0.287,1.416 c -0.158,0.779 -0.645,3.789 -1.083,6.689 -0.438,2.901 -0.923,6.016 -1.077,6.923 l -0.282,1.65 -30.953,0.283 c -31.31,0.287 -39.504,0.633 -59.298,2.503 -6.022,0.568 -11.626,1.034 -12.452,1.034 h -1.502 l -2.772,-7.927 c -1.524,-4.36 -2.64,-8.058 -2.481,-8.217 0.613,-0.613 24.028,-2.931 39.646,-3.925 9.014,-0.574 66.779,-1.124 70.529,-0.672 z m 100.17,11.29 c 66.816,14.507 102.961,38.789 95.193,63.951 -5.42,17.555 -34.894,35.251 -76.467,45.91 -28.463,7.298 -58.617,11.776 -100.087,14.865 -15.318,1.141 -60.106,1.59 -77.337,0.775 -54.11,-2.56 -97.491,-9.416 -131.119,-20.724 -29.434,-9.898 -48.723,-21.593 -57.053,-34.592 -2.806,-4.379 -3.974,-8.167 -4.012,-13.011 l -0.033,-4.218 1.194,-3.519 c 3.22,-9.489 14.33,-19.928 30.124,-28.305 4.721,-2.504 17.008,-7.99 17.895,-7.99 0.403,0 5.824,15.062 5.824,16.182 0,0.318 -0.534,0.714 -1.186,0.879 -2.043,0.519 -11.002,6.076 -14.779,9.167 -4.076,3.336 -7.914,8.365 -9.147,11.986 -0.553,1.625 -0.764,3.704 -0.634,6.266 l 0.193,3.835 1.419,2.735 c 2.128,4.105 4.46,6.744 8.961,10.139 13.068,9.859 36.382,18.21 68.407,24.5 32.432,6.371 65.443,9.564 104.623,10.118 91.764,1.297 174.968,-14.415 198.552,-37.495 3.69,-3.611 5.386,-6.428 6.507,-10.806 3.044,-11.886 -6.961,-22.445 -30.242,-31.919 -11.072,-4.505 -27.272,-9.261 -43.313,-12.715 -3.624,-0.781 -6.768,-1.581 -6.987,-1.779 -0.219,-0.199 0.147,-3.907 0.815,-8.241 l 1.213,-7.881 1.03,-0.078 c 0.566,-0.044 5.267,0.841 10.446,1.965 z m -106.792,17.225 c 2.532,0.12 3.82,0.396 3.819,0.818 -10e-4,0.35 -2.728,18.314 -6.061,39.922 -3.333,21.607 -6.06,39.345 -6.06,39.418 0,0.378 -33.546,0.063 -44.01,-0.414 -14.363,-0.655 -15.346,-0.778 -15.709,-1.972 -0.152,-0.5 -2.457,-6.961 -5.122,-14.357 -2.665,-7.395 -6.692,-18.667 -8.949,-25.048 -2.258,-6.38 -5.91,-16.681 -8.117,-22.891 -2.207,-6.21 -3.924,-11.378 -3.816,-11.487 0.267,-0.266 11.782,-1.578 19.84,-2.259 20.034,-1.693 56.903,-2.553 74.185,-1.73 z m 92.105,8.973 c 4.18,0.705 17.231,3.765 24.247,5.685 30.215,8.267 47.865,18.088 46.414,25.825 -2.113,11.27 -35.67,24.668 -79.226,31.632 l -2.24,0.358 v -1.328 c 0,-0.731 0.691,-5.676 1.535,-10.989 0.844,-5.313 2.867,-18.44 4.496,-29.171 1.63,-10.732 3.133,-20.114 3.341,-20.851 l 0.379,-1.339 z M 376.19,411.178 c 7.1,20.79 10.603,31.469 10.393,31.679 -0.38,0.381 -7.884,-2.395 -13.263,-4.906 -9.064,-4.231 -14.705,-8.551 -16.579,-12.697 l -0.971,-2.147 0.571,-2.067 c 0.397,-1.442 1.631,-3.106 4.077,-5.499 l 3.508,-3.432 5.343,-2.777 5.342,-2.777 z m 386.433,80.954 -0.012,43.373 -1.052,2.318 c -3.182,7.018 -18.704,17.732 -36.14,24.946 -40.706,16.843 -95.759,26.177 -167.94,28.475 l -19.891,0.632 -19.112,-0.644 c -38.851,-1.311 -63.679,-3.605 -92.634,-8.561 -43.196,-7.393 -74.322,-17.686 -94.999,-31.412 -5.975,-3.967 -12.439,-10.056 -14.042,-13.228 l -1.122,-2.22 v -43.608 -43.608 l 5.403,5.226 c 11.244,10.875 27.933,19.738 52.838,28.059 32.275,10.783 77.201,18.111 127.024,20.717 26.121,1.366 67.4,0.76 95.663,-1.406 77.185,-5.915 136.53,-23.469 160.672,-47.526 2.708,-2.699 5.02,-4.906 5.139,-4.906 0.119,0 0.211,19.518 0.205,43.373 z m -22.36,230.971 -0.029,154.112 -1.188,3.164 c -3.805,10.131 -14.371,19.356 -32.018,27.955 -19.12,9.317 -43.182,16.301 -74.316,21.572 -16.472,2.788 -42.063,5.496 -62.696,6.634 -10.616,0.585 -51.165,0.779 -57.998,0.277 -2.032,-0.149 -7.845,-0.521 -12.919,-0.827 -25.176,-1.516 -54.514,-5.56 -76.578,-10.553 -35.081,-7.94 -60.736,-19.048 -74.476,-32.247 -4.803,-4.612 -7.491,-8.603 -9.184,-13.629 l -1.045,-3.103 V 722.668 568.877 l 0.659,0.288 c 0.362,0.159 3.861,1.698 7.774,3.421 23.891,10.517 59.764,19.485 97.245,24.308 52.65,6.776 112.348,7.636 167.081,2.405 39.151,-3.741 69.468,-9.451 98.15,-18.485 8.798,-2.772 24.351,-8.641 28.72,-10.84 1.076,-0.541 2.157,-0.984 2.402,-0.984 0.245,0 0.433,69.351 0.416,154.113 z m -250.15,-76.719 -5.139,0.162 -0.009,54.164 -0.01,54.165 -0.766,3.619 c -1.282,6.055 -4.446,10.245 -9.493,12.569 l -2.635,1.213 h -5.535 -5.534 l -2.464,-1.139 c -5.35,-2.473 -9.185,-7.75 -10.438,-14.357 -0.281,-1.485 -0.672,-5.903 -0.868,-9.818 l -0.357,-7.116 H 432.977 419.09 l 0.001,8.569 c 10e-4,8.932 0.711,14.625 2.561,20.54 4.852,15.504 15.516,25.762 31.257,30.068 l 4.394,1.202 9.487,-0.008 9.487,-0.008 4.48,-1.212 c 12.523,-3.386 22.108,-11.363 27.676,-23.029 1.246,-2.611 2.796,-6.763 3.445,-9.229 l 1.18,-4.482 0.347,-30.321 c 0.19,-16.677 0.335,-42.78 0.321,-58.007 l -0.027,-27.685 -9.224,-0.011 c -5.073,-0.006 -11.536,0.062 -14.362,0.151 z m 49.934,0.133 c -0.424,0.687 -0.126,150.827 0.3,151.091 0.176,0.108 6.704,0.23 14.507,0.27 l 14.187,0.073 0.264,-50.458 0.264,-50.458 4.029,7.563 c 7.032,13.196 29.014,55.395 38.826,74.534 l 9.462,18.456 14.426,0.374 c 7.934,0.205 14.722,0.272 15.084,0.148 l 0.659,-0.225 V 721.933 645.981 H 637.56 623.066 l -0.026,48.91 -0.027,48.91 -2.146,-4.219 c -2.999,-5.895 -13.602,-25.908 -30.639,-57.828 -7.997,-14.984 -15.504,-29.163 -16.683,-31.508 l -2.143,-4.265 H 555.89 c -9.947,0 -15.63,0.192 -15.843,0.536 z"
                     style="fill:#2b2b2b;fill-opacity:1"
                     id="path1" />
                </g>
              </g>
            </g>
          </g>
        </g>
      </g>
    </g>
  </g>
</svg>
