<svg width="2049.066" xmlns="http://www.w3.org/2000/svg" height="2048.049"
    id="screenshot-1736bd4a-02b0-8059-8006-3d462aeaa475" viewBox="0 0 2049.066 2048.049"
    xmlns:xlink="http://www.w3.org/1999/xlink" fill="none" version="1.1">
    <g id="shape-1736bd4a-02b0-8059-8006-3d462aeaa475" width="2048" height="2048" rx="0" ry="0"
        style="fill: rgb(0, 0, 0);">
        <g id="shape-1736bd4a-02b0-8059-8006-3d462af04d4a" style="display: none;">
            <g class="fills" id="fills-1736bd4a-02b0-8059-8006-3d462af04d4a">
                <rect width="2047.9999999999998" height="2048" x="0.1330000000000382"
                    transform="matrix(1.000000, 0.000000, 0.000000, 1.000000, 0.000000, 0.000000)" style="fill: none;"
                    ry="0" fill="none" rx="0" y="0" />
            </g>
        </g>
        <g id="shape-1736bd4a-02b0-8059-8006-3d462af74a39">
            <g class="fills" id="fills-1736bd4a-02b0-8059-8006-3d462af74a39">
                <path
                    d="M208.411,1.551C169.614,6.009,136.632,17.346,106.575,36.555C91.471,46.207,83.386,52.668,69.812,65.929C31.519,103.340,11.173,144.718,2.410,203.000L0.681,214.500L0.341,1013.500L0.000,1812.500L1.146,1827.500C2.466,1844.782,5.885,1866.151,9.605,1880.364C21.115,1924.353,49.339,1967.612,85.133,1996.133C118.198,2022.478,153.063,2037.912,196.133,2045.269L208.633,2047.404L1016.633,2047.726L1824.633,2048.049L1838.431,2046.482C1869.098,2043.000,1894.668,2035.851,1918.633,2024.058C1972.503,1997.549,2011.907,1954.224,2032.496,1898.864C2039.318,1880.522,2045.138,1852.954,2046.669,1831.735C2047.056,1826.364,2047.769,1821.725,2048.253,1821.426C2048.759,1821.113,2049.103,1480.587,2049.063,1021.191C2049.023,574.306,2048.613,222.382,2048.133,223.500L2047.274,225.500L2047.203,220.970C2047.093,213.847,2044.263,192.581,2042.027,182.071C2026.851,110.733,1980.362,51.781,1916.133,22.425C1891.703,11.259,1868.173,4.880,1839.133,1.550L1825.633,0.002L1022.633,0.132L219.633,0.262L208.411,1.551ZM208.133,28.112C170.945,32.373,137.850,45.617,107.283,68.470C65.836,99.456,38.755,145.058,29.919,198.742L27.655,212.500L27.345,1014.500C27.134,1562.540,27.365,1820.940,28.075,1830.522C31.228,1873.078,43.957,1908.006,67.955,1939.957C99.346,1981.750,142.340,2007.770,197.133,2018.135L209.633,2020.500L1022.633,2020.500L1835.633,2020.500L1845.530,2019.159C1868.752,2016.013,1890.187,2009.166,1911.924,1997.950C1949.254,1978.688,1978.119,1949.867,1997.006,1913.000C2009.140,1889.312,2015.472,1868.632,2018.863,1841.608L2020.633,1827.500L2020.633,1023.500L2020.633,219.500L2019.332,208.500C2013.732,161.142,1994.830,120.258,1963.694,88.159C1933.734,57.271,1895.545,37.666,1849.032,29.295L1839.633,27.603L1027.633,27.428C580.036,27.331,212.267,27.638,208.133,28.112ZM0.631,1022.500C0.631,1462.500,0.744,1642.650,0.883,1422.832C1.022,1203.015,1.022,843.015,0.883,622.832C0.744,402.650,0.631,582.500,0.631,1022.500ZM1369.632,254.327C1360.009,257.489,1354.416,263.292,1350.188,274.500C1341.874,296.541,1333.373,322.878,1334.443,323.283C1335.097,323.531,1347.783,328.123,1362.633,333.487C1377.483,338.851,1398.858,346.592,1410.133,350.690C1421.408,354.788,1436.115,360.069,1442.815,362.427L1454.996,366.713L1457.041,361.107C1458.166,358.023,1462.303,346.500,1466.235,335.500L1473.383,315.500L1473.873,307.452L1474.363,299.404L1472.135,294.225C1469.632,288.408,1462.946,281.665,1457.323,279.287C1455.293,278.429,1438.558,272.335,1420.133,265.745L1386.633,253.762L1380.133,253.388C1376.403,253.173,1371.928,253.573,1369.632,254.327ZM1103.133,293.631C1102.308,293.850,1097.583,294.619,1092.633,295.340L1083.633,296.650L1083.881,299.075C1084.338,303.542,1101.138,411.338,1101.421,411.622C1101.741,411.942,1117.042,409.535,1124.876,407.932C1134.270,406.010,1138.959,398.782,1137.730,388.116C1135.247,366.572,1124.765,303.097,1123.262,300.503C1122.307,298.855,1120.020,296.493,1118.181,295.253L1114.837,293.000L1109.735,293.116C1106.929,293.180,1103.958,293.412,1103.133,293.631ZM1058.633,300.532C1058.083,300.750,1035.358,304.300,1008.133,308.421C980.908,312.542,937.933,319.091,912.633,322.974C887.333,326.858,843.008,333.628,814.133,338.019C758.428,346.491,752.385,347.417,686.633,357.550C650.668,363.093,601.266,370.799,590.383,372.564C588.595,372.853,587.133,373.217,587.133,373.371C587.133,375.223,592.074,407.653,602.237,472.500C603.443,480.200,604.746,486.860,605.131,487.299C605.516,487.739,634.812,483.521,670.232,477.927C736.272,467.497,751.428,465.825,761.109,467.901C770.068,469.823,779.068,474.767,785.745,481.435C797.544,493.218,798.138,495.396,808.067,563.192C809.703,574.361,811.984,589.350,813.136,596.500C814.288,603.650,816.318,616.475,817.647,625.000C820.311,642.082,834.972,736.009,841.182,775.780C843.354,789.684,846.942,812.409,849.156,826.280C851.371,840.151,853.677,854.875,854.280,859.000C854.883,863.125,855.705,866.861,856.107,867.302C856.882,868.153,882.406,871.358,897.883,872.547L907.133,873.258L907.132,870.879C907.131,869.571,904.227,849.825,900.678,827.000C897.129,804.175,892.616,775.150,890.650,762.500C888.683,749.850,883.038,713.788,878.104,682.363C873.170,650.937,869.133,623.340,869.133,621.036L869.133,616.846L872.056,613.923L874.979,611.000L879.040,611.000L883.101,611.000L886.151,613.750L889.200,616.500L901.112,692.000C925.334,845.512,929.959,874.160,930.634,874.834C930.919,875.119,939.585,875.916,949.892,876.605C978.002,878.485,981.137,878.582,981.135,877.573C981.132,876.155,966.943,783.634,959.654,737.500C942.630,629.761,939.868,612.099,937.054,593.000C935.393,581.725,931.168,554.500,927.664,532.500C919.653,482.200,919.650,482.170,921.495,473.332C925.250,455.342,936.859,442.163,954.369,436.008C960.149,433.977,975.350,431.330,1026.133,423.513C1069.104,416.898,1078.061,415.405,1078.714,414.753C1079.344,414.122,1076.631,394.261,1070.071,351.500C1067.793,336.650,1065.188,319.106,1064.281,312.513L1062.633,300.527L1061.133,300.331C1060.308,300.223,1059.183,300.313,1058.633,300.532ZM1328.641,335.252C1328.406,335.938,1327.306,338.948,1326.197,341.940C1325.088,344.933,1324.282,347.479,1324.407,347.598C1324.636,347.818,1345.181,355.398,1379.633,367.973C1390.083,371.788,1409.148,378.754,1421.999,383.454C1434.850,388.154,1445.681,392.000,1446.066,392.000C1446.452,392.000,1447.583,389.413,1448.579,386.250C1449.575,383.087,1450.606,379.938,1450.869,379.250C1451.132,378.563,1450.823,378.000,1450.182,378.000C1449.542,378.000,1439.256,374.424,1427.326,370.053C1415.395,365.682,1390.783,356.722,1372.633,350.142C1354.483,343.563,1337.256,337.240,1334.351,336.092L1329.069,334.004L1328.641,335.252ZM1317.789,366.194L1316.142,370.387L1317.387,371.166C1318.072,371.595,1323.358,373.597,1329.133,375.615C1334.908,377.633,1346.158,381.672,1354.133,384.592C1422.576,409.646,1438.367,415.169,1439.125,414.321C1440.087,413.247,1442.244,406.778,1441.792,406.326C1441.431,405.965,1429.022,401.419,1387.633,386.485C1374.433,381.723,1354.099,374.265,1342.447,369.913C1330.794,365.561,1320.850,362.000,1320.349,362.000C1319.847,362.000,1318.695,363.887,1317.789,366.194ZM552.712,377.535C543.905,379.013,540.477,380.987,537.885,386.071C535.477,390.792,535.635,393.915,539.591,419.839C543.437,445.038,546.675,467.592,547.671,476.105C548.616,484.181,551.615,488.996,557.526,491.925L562.419,494.350L572.365,492.753C577.835,491.874,582.466,491.000,582.656,490.810C582.846,490.620,579.936,470.447,576.190,445.982C572.443,421.517,568.557,395.762,567.555,388.750L565.732,376.000L563.182,376.103C561.780,376.159,557.069,376.803,552.712,377.535ZM1311.437,384.954L1309.344,389.907L1315.989,392.081C1322.196,394.112,1330.513,397.119,1375.133,413.471C1404.417,424.203,1431.700,434.000,1432.303,434.000C1433.093,434.000,1435.527,425.061,1434.906,424.440C1434.629,424.163,1418.930,418.361,1400.018,411.546C1356.273,395.784,1326.091,384.764,1319.346,382.093C1316.438,380.942,1313.940,380.000,1313.794,380.000C1313.649,380.000,1312.588,382.229,1311.437,384.954ZM1302.255,410.054C1300.995,413.965,1300.146,417.347,1300.369,417.569C1301.475,418.675,1419.766,461.000,1421.751,461.000C1422.953,461.000,1427.133,451.325,1427.133,448.543C1427.133,447.759,1424.862,446.423,1421.883,445.456C1411.952,442.230,1316.727,407.774,1306.089,403.556L1304.545,402.944L1302.255,410.054ZM1295.604,430.046C1295.344,430.468,1293.522,435.467,1291.556,441.156C1289.591,446.845,1284.675,460.725,1280.634,472.000C1276.592,483.275,1269.008,504.875,1263.780,520.000C1258.553,535.125,1248.574,563.700,1241.605,583.500C1234.637,603.300,1226.774,625.800,1224.133,633.500C1221.492,641.200,1215.193,659.200,1210.136,673.500C1205.079,687.800,1197.658,708.950,1193.643,720.500C1184.277,747.450,1174.939,773.977,1161.612,811.500C1142.339,865.761,1139.841,873.041,1140.324,873.525C1140.786,873.987,1171.404,871.326,1175.790,870.443L1177.946,870.009L1179.960,864.254C1181.067,861.089,1184.752,850.625,1188.148,841.000C1191.545,831.375,1199.423,808.875,1205.657,791.000C1211.890,773.125,1221.104,746.800,1226.133,732.500C1231.162,718.200,1237.913,698.850,1241.135,689.500C1244.357,680.150,1251.558,659.450,1257.137,643.500C1262.715,627.550,1270.342,605.725,1274.085,595.000C1284.485,565.199,1302.050,515.314,1315.768,476.623C1322.569,457.440,1328.133,441.409,1328.133,440.998C1328.133,440.586,1326.853,439.994,1325.289,439.681C1323.725,439.368,1316.513,436.900,1309.262,434.196C1302.011,431.493,1295.865,429.625,1295.604,430.046ZM1337.621,446.250C1331.689,462.754,1321.904,490.405,1318.600,500.000C1316.232,506.875,1309.714,525.550,1304.115,541.500C1298.516,557.450,1291.764,576.800,1289.111,584.500C1286.457,592.200,1280.025,610.650,1274.816,625.500C1269.608,640.350,1260.534,666.225,1254.651,683.000C1248.769,699.775,1241.559,720.475,1238.629,729.000C1235.700,737.525,1228.734,757.550,1223.150,773.500C1217.566,789.450,1210.596,809.475,1207.661,818.000C1204.726,826.525,1199.592,841.263,1196.252,850.750L1190.180,868.000L1191.632,868.000C1193.426,868.000,1235.381,861.096,1235.690,860.750C1236.014,860.386,1251.096,817.201,1265.987,774.000C1299.964,675.423,1306.584,656.337,1312.116,641.000C1315.390,631.925,1320.816,616.625,1324.174,607.000C1327.532,597.375,1333.440,580.500,1337.302,569.500C1341.164,558.500,1347.847,539.375,1352.154,527.000C1356.461,514.625,1363.602,494.157,1368.024,481.515C1372.445,468.873,1375.741,458.241,1375.348,457.889C1374.955,457.537,1370.808,456.001,1366.133,454.477C1361.458,452.953,1353.657,450.197,1348.797,448.353C1338.921,444.605,1338.257,444.480,1337.621,446.250ZM1381.986,473.273C1378.257,484.755,1368.361,513.316,1352.111,559.500C1347.080,573.800,1339.660,594.950,1335.622,606.500C1331.585,618.050,1323.716,640.550,1318.135,656.500C1312.554,672.450,1302.648,701.025,1296.120,720.000C1289.592,738.975,1279.013,769.575,1272.611,788.000C1254.349,840.554,1248.874,857.074,1249.508,857.709C1249.832,858.032,1258.775,856.195,1269.381,853.625L1288.664,848.952L1294.556,831.726C1297.797,822.252,1309.644,787.950,1320.882,755.500C1332.121,723.050,1348.220,676.475,1356.658,652.000C1365.096,627.525,1377.005,593.100,1383.121,575.500C1396.449,537.152,1412.353,491.301,1415.843,481.168C1417.232,477.135,1417.978,473.496,1417.501,473.080C1417.024,472.664,1412.133,470.830,1406.633,469.004C1401.133,467.178,1394.683,464.855,1392.300,463.842C1389.917,462.829,1387.442,462.010,1386.800,462.023C1386.158,462.036,1383.992,467.099,1381.986,473.273ZM974.818,672.669L971.002,673.129L971.546,675.814C971.845,677.291,972.769,683.000,973.600,688.500C974.431,694.000,975.351,699.908,975.644,701.628L976.178,704.756L1034.905,705.294C1094.310,705.838,1109.856,706.494,1147.410,710.039C1158.837,711.117,1169.469,712.000,1171.036,712.000L1173.886,712.000L1179.144,696.968C1182.036,688.700,1184.154,681.688,1183.851,681.385C1182.689,680.223,1138.264,675.828,1108.633,673.943C1091.530,672.855,981.933,671.811,974.818,672.669ZM784.768,694.078C657.999,721.588,589.422,767.635,604.160,815.351C614.442,848.641,670.363,882.199,749.240,902.412C803.242,916.251,860.452,924.743,939.133,930.601C968.196,932.765,1053.171,933.616,1085.862,932.070C1188.525,927.217,1270.830,914.214,1334.633,892.771C1390.477,874.002,1427.074,851.823,1442.879,827.172C1448.203,818.868,1450.418,811.686,1450.490,802.500L1450.552,794.500L1448.287,787.827C1442.178,769.833,1421.099,750.037,1391.133,734.151C1382.176,729.403,1358.865,719.000,1357.181,719.000C1356.417,719.000,1346.133,747.562,1346.133,749.686C1346.133,750.289,1347.146,751.040,1348.383,751.354C1352.259,752.337,1369.257,762.875,1376.422,768.737C1384.156,775.064,1391.437,784.600,1393.776,791.466C1394.826,794.549,1395.226,798.490,1394.980,803.350L1394.613,810.622L1391.922,815.808C1387.884,823.593,1383.459,828.597,1374.920,835.035C1350.126,853.732,1305.892,869.567,1245.133,881.496C1183.600,893.578,1120.968,899.632,1046.633,900.682C872.530,903.142,714.669,873.346,669.924,829.579C662.922,822.731,659.704,817.389,657.577,809.088C651.803,786.548,670.784,766.525,714.955,748.559C735.962,740.015,766.698,730.996,797.133,724.446C804.008,722.966,809.973,721.448,810.389,721.072C810.804,720.696,810.109,713.664,808.843,705.444L806.541,690.500L804.587,690.351C803.512,690.268,794.594,691.946,784.768,694.078ZM987.383,726.743C982.578,726.971,980.134,727.494,980.136,728.294C980.138,728.957,985.313,763.024,991.636,803.999C997.959,844.973,1003.133,878.611,1003.133,878.749C1003.133,879.467,1066.780,878.869,1086.633,877.964C1113.883,876.723,1115.749,876.489,1116.437,874.225C1116.726,873.276,1121.099,861.025,1126.155,847.000C1131.211,832.975,1138.852,811.600,1143.135,799.500C1147.418,787.400,1154.348,767.866,1158.535,756.090C1162.721,744.315,1165.979,734.513,1165.775,734.308C1165.268,733.802,1143.420,731.314,1128.133,730.023C1090.123,726.812,1020.171,725.182,987.383,726.743ZM812.633,743.758C804.702,745.096,779.941,750.899,766.629,754.539C709.304,770.216,675.817,788.840,678.569,803.512C682.579,824.884,746.245,850.291,828.883,863.497L833.133,864.176L833.133,861.657C833.133,860.272,831.823,850.895,830.221,840.819C828.620,830.744,824.781,805.850,821.690,785.500C818.599,765.150,815.746,747.357,815.351,745.960L814.633,743.421L812.633,743.758ZM1335.327,779.734C1321.857,819.159,1315.210,839.410,1315.608,839.808C1316.330,840.530,1330.567,835.266,1340.773,830.504C1357.969,822.481,1368.671,814.289,1372.227,806.427L1374.070,802.355L1372.987,798.435C1372.233,795.702,1369.891,792.546,1365.251,788.008L1358.596,781.500L1348.459,776.234L1338.322,770.968L1335.327,779.734ZM602.155,933.250L602.177,1015.500L604.172,1019.897C610.210,1033.205,639.660,1053.523,672.740,1067.203C749.972,1099.142,854.422,1116.842,991.371,1121.200L1029.109,1122.400L1065.371,1121.178C1139.081,1118.692,1186.188,1114.341,1241.124,1104.943C1323.079,1090.923,1382.134,1071.405,1421.363,1045.375C1432.699,1037.853,1444.963,1026.305,1448.004,1020.290L1450.133,1016.080L1450.133,933.385L1450.133,850.690L1439.883,860.599C1418.550,881.223,1386.885,898.029,1339.633,913.809C1278.399,934.258,1193.161,948.153,1098.633,953.095C1049.075,955.686,970.757,954.536,917.133,950.429C770.691,939.213,658.097,905.925,612.293,860.303C607.156,855.186,602.769,851.000,602.543,851.000C602.318,851.000,602.143,888.013,602.155,933.250ZM644.577,1371.250L644.633,1663.500L646.887,1669.500C654.106,1688.711,674.152,1706.205,707.633,1722.511C743.909,1740.179,789.562,1753.424,848.633,1763.419C879.884,1768.707,928.437,1773.842,967.585,1775.999C987.725,1777.109,1064.658,1777.477,1077.623,1776.525C1081.479,1776.242,1092.508,1775.537,1102.133,1774.957C1149.900,1772.082,1205.563,1764.414,1247.424,1754.945C1313.982,1739.888,1362.657,1718.823,1388.727,1693.794C1397.838,1685.047,1402.939,1677.480,1406.150,1667.948L1408.133,1662.063L1408.133,1370.425L1408.133,1078.786L1406.883,1079.332C1406.196,1079.632,1399.558,1082.551,1392.133,1085.818C1346.806,1105.763,1278.744,1122.768,1207.633,1131.915C1107.740,1144.765,994.476,1146.395,890.633,1136.476C816.352,1129.381,758.831,1118.553,704.414,1101.421C687.721,1096.165,658.214,1085.035,649.923,1080.866C647.882,1079.840,645.832,1079.000,645.367,1079.000C644.902,1079.000,644.546,1210.513,644.577,1371.250ZM929.883,1225.765L920.133,1226.072L920.116,1328.786L920.098,1431.500L918.644,1438.364C916.211,1449.847,910.208,1457.792,900.633,1462.199L895.633,1464.500L885.133,1464.500L874.633,1464.500L869.957,1462.339C859.808,1457.649,852.531,1447.643,850.154,1435.113C849.620,1432.297,848.879,1423.919,848.506,1416.496L847.829,1403.000L821.481,1403.000L795.133,1403.000L795.134,1419.250C795.136,1436.188,796.483,1446.985,799.994,1458.201C809.199,1487.602,829.431,1507.055,859.296,1515.221L867.633,1517.500L885.633,1517.485L903.633,1517.469L912.133,1515.172C935.892,1508.750,954.078,1493.624,964.641,1471.500C967.005,1466.550,969.946,1458.675,971.177,1454.000L973.417,1445.500L974.074,1388.000C974.436,1356.375,974.710,1306.875,974.683,1278.000L974.633,1225.500L957.133,1225.479C947.508,1225.467,935.245,1225.596,929.883,1225.765ZM1024.622,1226.017C1023.817,1227.320,1024.383,1512.037,1025.192,1512.537C1025.526,1512.743,1037.911,1512.973,1052.716,1513.049L1079.633,1513.188L1080.133,1417.502L1080.633,1321.817L1088.278,1336.159C1101.619,1361.183,1143.325,1441.207,1161.941,1477.500L1179.894,1512.500L1207.264,1513.208C1222.317,1513.597,1235.196,1513.724,1235.883,1513.489L1237.133,1513.063L1237.133,1369.031L1237.133,1225.000L1209.633,1225.000L1182.133,1225.000L1182.083,1317.750L1182.033,1410.500L1177.961,1402.500C1172.271,1391.322,1152.154,1353.370,1119.830,1292.838C1104.658,1264.423,1090.414,1237.536,1088.177,1233.088L1084.111,1225.000L1054.681,1225.000C1035.809,1225.000,1025.026,1225.365,1024.622,1226.017Z"
                    fill-rule="evenodd" />
            </g>
        </g>
    </g>
</svg>