<svg width="1080" xmlns="http://www.w3.org/2000/svg" height="1080" id="screenshot-8b3458a4-675f-80c8-8006-3d4cf69cfa6b"
    viewBox="0 0 1080 1080" fill="none" version="1.1">
    <g id="shape-8b3458a4-675f-80c8-8006-3d4cf69cfa6b">
        <g class="frame-container-wrapper">
            <g class="frame-container-blur">
                <g class="frame-container-shadows">
                    <g fill="none">
                        <g class="fills" id="fills-8b3458a4-675f-80c8-8006-3d4cf69cfa6b">
                            <rect width="1080" height="1080" class="frame-background" x="0"
                                transform="matrix(1.000000, 0.000000, 0.000000, 1.000000, 0.000000, 0.000000)"
                                style="fill: rgb(255, 255, 255); fill-opacity: 0;" ry="0" rx="0" y="0" />
                        </g>
                        <g class="frame-children">
                            <g id="shape-c07b94ec-6abf-804a-8006-3d57fe8e4b14">
                                <g class="fills" id="fills-c07b94ec-6abf-804a-8006-3d57fe8e4b14">
                                    <path
                                        d="M358.109,134.115C363.181,135.782,366.129,138.842,368.357,144.752C372.739,156.375,377.220,170.264,376.656,170.477C376.311,170.608,369.625,173.029,361.798,175.858C353.971,178.687,342.705,182.769,336.762,184.930C330.819,187.091,323.068,189.876,319.536,191.119L313.116,193.379L312.038,190.423C311.445,188.797,309.265,182.720,307.192,176.920L303.425,166.373L303.167,162.129L302.908,157.885L304.083,155.154C305.402,152.087,308.926,148.531,311.890,147.277C312.960,146.824,321.780,143.611,331.491,140.136L349.148,133.817L352.574,133.619C354.540,133.506,356.899,133.717,358.109,134.115ZM498.572,154.841C499.007,154.956,501.498,155.362,504.107,155.742L508.850,156.433L508.720,157.712C508.479,160.067,499.624,216.911,499.475,217.061C499.306,217.230,491.241,215.961,487.112,215.115C482.161,214.102,479.690,210.290,480.337,204.666C481.646,193.305,487.171,159.832,487.963,158.465C488.466,157.596,489.672,156.350,490.641,155.696L492.404,154.508L495.093,154.569C496.572,154.603,498.138,154.725,498.572,154.841ZM522.027,158.480C522.317,158.595,534.295,160.467,548.644,162.640C562.993,164.813,585.644,168.267,598.979,170.314C612.314,172.362,635.676,175.932,650.895,178.248C680.256,182.715,683.441,183.204,718.097,188.547C737.053,191.470,763.091,195.534,768.827,196.465C769.770,196.617,770.540,196.809,770.540,196.890C770.540,197.867,767.936,214.968,762.579,249.164C761.944,253.224,761.257,256.736,761.054,256.968C760.851,257.200,745.410,254.976,726.741,252.026C691.934,246.526,683.945,245.644,678.843,246.739C674.121,247.752,669.377,250.359,665.858,253.876C659.639,260.089,659.326,261.238,654.093,296.989C653.230,302.878,652.028,310.783,651.421,314.553C650.814,318.323,649.744,325.086,649.043,329.582C647.639,338.590,639.912,388.120,636.639,409.093C635.494,416.425,633.603,428.409,632.436,435.723C631.268,443.038,630.053,450.802,629.735,452.977C629.417,455.153,628.984,457.123,628.772,457.355C628.364,457.804,614.911,459.494,606.753,460.121L601.878,460.496L601.879,459.242C601.879,458.552,603.410,448.139,605.280,436.103C607.151,424.067,609.529,408.761,610.566,402.090C611.602,395.419,614.578,376.403,617.178,359.831C619.779,343.259,621.907,328.707,621.907,327.492L621.907,325.282L620.366,323.741L618.825,322.199L616.685,322.199L614.545,322.199L612.937,323.649L611.330,325.100L605.051,364.913C592.285,445.865,589.847,460.972,589.491,461.327C589.341,461.477,584.774,461.898,579.341,462.261C564.525,463.252,562.873,463.304,562.874,462.772C562.875,462.024,570.354,413.235,574.196,388.907C583.169,332.093,584.624,322.779,586.108,312.707C586.983,306.762,589.210,292.405,591.057,280.804C595.279,254.279,595.281,254.263,594.308,249.603C592.329,240.116,586.210,233.166,576.981,229.921C573.935,228.850,565.923,227.454,539.157,223.332C516.508,219.843,511.787,219.056,511.443,218.712C511.111,218.379,512.541,207.906,515.998,185.357C517.199,177.526,518.572,168.275,519.050,164.798L519.919,158.477L520.709,158.374C521.144,158.317,521.737,158.364,522.027,158.480ZM379.714,176.789C379.838,177.151,380.418,178.738,381.002,180.316C381.587,181.894,382.012,183.236,381.946,183.299C381.825,183.415,370.996,187.412,352.838,194.044C347.330,196.055,337.281,199.729,330.508,202.207C323.735,204.686,318.026,206.714,317.823,206.714C317.619,206.714,317.023,205.350,316.498,203.682C315.973,202.014,315.430,200.353,315.291,199.990C315.153,199.628,315.316,199.331,315.653,199.331C315.991,199.331,321.412,197.445,327.700,195.140C333.989,192.836,346.961,188.111,356.527,184.641C366.094,181.171,375.173,177.837,376.704,177.232L379.488,176.131L379.714,176.789ZM385.434,193.105L386.302,195.317L385.646,195.727C385.285,195.954,382.499,197.009,379.455,198.073C376.411,199.138,370.481,201.268,366.278,202.807C330.204,216.019,321.881,218.932,321.481,218.484C320.974,217.918,319.837,214.507,320.076,214.268C320.266,214.078,326.806,211.681,348.621,203.806C355.578,201.294,366.296,197.362,372.437,195.067C378.579,192.772,383.820,190.894,384.084,190.894C384.349,190.894,384.956,191.889,385.434,193.105ZM788.682,199.086C793.324,199.865,795.131,200.906,796.497,203.587C797.766,206.077,797.683,207.724,795.598,221.394C793.571,234.682,791.864,246.576,791.339,251.065C790.841,255.324,789.261,257.863,786.145,259.407L783.566,260.686L778.324,259.844C775.441,259.380,773.000,258.920,772.900,258.819C772.800,258.719,774.334,248.081,776.308,235.180C778.283,222.279,780.331,208.698,780.859,205.000L781.820,198.277L783.164,198.331C783.903,198.360,786.386,198.700,788.682,199.086ZM388.782,202.998L389.885,205.610L386.383,206.757C383.111,207.828,378.727,209.413,355.210,218.036C339.775,223.695,325.395,228.862,325.077,228.862C324.661,228.862,323.378,224.148,323.705,223.820C323.851,223.674,332.125,220.615,342.093,217.021C365.150,208.709,381.058,202.898,384.613,201.490C386.146,200.883,387.462,200.386,387.539,200.386C387.616,200.386,388.175,201.561,388.782,202.998ZM393.621,216.234C394.285,218.297,394.733,220.080,394.615,220.197C394.032,220.780,331.685,243.100,330.639,243.100C330.005,243.100,327.802,237.998,327.802,236.531C327.802,236.117,328.999,235.413,330.569,234.903C335.803,233.202,385.994,215.032,391.600,212.808L392.414,212.485L393.621,216.234ZM397.127,226.777C397.264,226.999,398.224,229.635,399.260,232.635C400.296,235.635,402.887,242.955,405.017,248.900C407.147,254.846,411.145,266.236,413.900,274.212C416.655,282.188,421.915,297.257,425.588,307.698C429.261,318.139,433.405,330.004,434.797,334.064C436.189,338.125,439.509,347.617,442.174,355.158C444.840,362.698,448.751,373.851,450.867,379.942C455.804,394.154,460.726,408.142,467.750,427.929C477.908,456.543,479.225,460.382,478.970,460.637C478.727,460.881,462.589,459.477,460.277,459.012L459.141,458.783L458.079,455.748C457.496,454.079,455.554,448.561,453.764,443.485C451.973,438.410,447.821,426.545,444.535,417.119C441.250,407.693,436.393,393.811,433.743,386.270C431.092,378.729,427.534,368.525,425.836,363.595C424.138,358.664,420.342,347.749,417.402,339.338C414.462,330.927,410.442,319.418,408.469,313.762C402.987,298.047,393.729,271.741,386.499,251.338C382.914,241.222,379.982,232.769,379.982,232.552C379.982,232.335,380.656,232.023,381.481,231.857C382.305,231.692,386.106,230.391,389.928,228.965C393.750,227.540,396.989,226.555,397.127,226.777ZM374.981,235.322C378.108,244.025,383.265,258.606,385.006,263.666C386.254,267.291,389.690,277.139,392.641,285.550C395.592,293.961,399.151,304.165,400.549,308.225C401.948,312.285,405.338,322.015,408.084,329.846C410.829,337.676,415.611,351.321,418.712,360.167C421.812,369.013,425.612,379.929,427.157,384.424C428.700,388.920,432.372,399.480,435.315,407.891C438.258,416.302,441.932,426.861,443.479,431.357C445.026,435.852,447.732,443.624,449.492,448.627L452.693,457.723L451.927,457.723C450.982,457.723,428.869,454.083,428.706,453.900C428.535,453.708,420.586,430.936,412.737,408.154C394.829,356.172,391.340,346.107,388.424,338.019C386.698,333.234,383.838,325.166,382.068,320.090C380.299,315.014,377.185,306.116,375.149,300.315C373.114,294.514,369.591,284.429,367.321,277.904C365.051,271.378,361.287,260.584,358.956,253.918C356.626,247.251,354.889,241.645,355.096,241.459C355.303,241.274,357.489,240.464,359.953,239.660C362.417,238.856,366.529,237.403,369.090,236.430C374.296,234.454,374.646,234.388,374.981,235.322ZM351.598,249.572C353.563,255.626,358.779,270.688,367.344,295.042C369.995,302.583,373.906,313.736,376.035,319.826C378.162,325.917,382.310,337.782,385.251,346.193C388.193,354.604,393.414,369.672,396.855,379.678C400.296,389.685,405.871,405.821,409.246,415.537C418.871,443.250,421.757,451.962,421.423,452.297C421.252,452.467,416.538,451.498,410.948,450.143L400.785,447.679L397.679,438.595C395.971,433.599,389.727,415.511,383.804,398.399C377.880,381.287,369.395,356.726,364.947,343.820C360.500,330.913,354.223,312.760,350.999,303.479C343.975,283.257,335.592,259.078,333.753,253.735C333.020,251.608,332.627,249.689,332.879,249.470C333.130,249.250,335.708,248.283,338.607,247.320C341.506,246.358,344.905,245.133,346.161,244.598C347.417,244.064,348.722,243.632,349.060,243.639C349.399,243.646,350.540,246.316,351.598,249.572ZM566.203,354.719L568.215,354.962L567.928,356.378C567.770,357.157,567.283,360.167,566.845,363.067C566.407,365.968,565.922,369.083,565.768,369.990L565.486,371.640L534.533,371.923C503.223,372.210,495.029,372.556,475.235,374.426C469.213,374.994,463.609,375.460,462.783,375.460L461.281,375.460L458.509,367.533C456.985,363.173,455.869,359.475,456.028,359.316C456.641,358.703,480.056,356.385,495.674,355.391C504.688,354.817,562.453,354.267,566.203,354.719ZM666.373,366.009C733.189,380.516,769.334,404.798,761.566,429.960C756.146,447.515,726.672,465.211,685.099,475.870C656.636,483.168,626.482,487.646,585.012,490.735C569.694,491.876,524.906,492.325,507.675,491.510C453.565,488.950,410.184,482.094,376.556,470.786C347.122,460.888,327.833,449.193,319.503,436.194C316.697,431.815,315.529,428.027,315.491,423.183L315.458,418.965L316.652,415.446C319.872,405.957,330.982,395.518,346.776,387.141C351.497,384.637,363.784,379.151,364.671,379.151C365.074,379.151,370.495,394.213,370.495,395.333C370.495,395.651,369.961,396.047,369.309,396.212C367.266,396.731,358.307,402.288,354.530,405.379C350.454,408.715,346.616,413.744,345.383,417.365C344.830,418.990,344.619,421.069,344.749,423.631L344.942,427.466L346.361,430.201C348.489,434.306,350.821,436.945,355.322,440.340C368.390,450.199,391.704,458.550,423.729,464.840C456.161,471.211,489.172,474.404,528.352,474.958C620.116,476.255,703.320,460.543,726.904,437.463C730.594,433.852,732.290,431.035,733.411,426.657C736.455,414.771,726.450,404.212,703.169,394.738C692.097,390.233,675.897,385.477,659.856,382.023C656.232,381.242,653.088,380.442,652.869,380.244C652.650,380.045,653.016,376.337,653.684,372.003L654.897,364.122L655.927,364.044C656.493,364.000,661.194,364.885,666.373,366.009ZM559.581,383.234C562.113,383.354,563.401,383.630,563.400,384.052C563.399,384.402,560.672,402.366,557.339,423.974C554.006,445.581,551.279,463.319,551.279,463.392C551.279,463.770,517.733,463.455,507.269,462.978C492.906,462.323,491.923,462.200,491.560,461.006C491.408,460.506,489.103,454.045,486.438,446.649C483.773,439.254,479.746,427.982,477.489,421.601C475.231,415.221,471.579,404.920,469.372,398.710C467.165,392.500,465.448,387.332,465.556,387.223C465.823,386.957,477.338,385.645,485.396,384.964C505.430,383.271,542.299,382.411,559.581,383.234ZM651.686,392.207C655.866,392.912,668.917,395.972,675.933,397.892C706.148,406.159,723.798,415.980,722.347,423.717C720.234,434.987,686.677,448.385,643.121,455.349L640.881,455.707L640.881,454.379C640.881,453.648,641.572,448.703,642.416,443.390C643.260,438.077,645.283,424.950,646.912,414.219C648.542,403.487,650.045,394.105,650.253,393.368L650.632,392.029L651.686,392.207ZM376.190,411.178C383.290,431.968,386.793,442.647,386.583,442.857C386.203,443.238,378.699,440.462,373.320,437.951C364.256,433.720,358.615,429.400,356.741,425.254L355.770,423.107L356.341,421.040C356.738,419.598,357.972,417.934,360.418,415.541L363.926,412.109L369.269,409.332L374.611,406.555L376.190,411.178ZM762.623,492.132L762.611,535.505L761.559,537.823C758.377,544.841,742.855,555.555,725.419,562.769C684.713,579.612,629.660,588.946,557.479,591.244L537.588,591.876L518.476,591.232C479.625,589.921,454.797,587.627,425.842,582.671C382.646,575.278,351.520,564.985,330.843,551.259C324.868,547.292,318.404,541.203,316.801,538.031L315.679,535.811L315.679,492.203L315.679,448.595L321.082,453.821C332.326,464.696,349.015,473.559,373.920,481.880C406.195,492.663,451.121,499.991,500.944,502.597C527.065,503.963,568.344,503.357,596.607,501.191C673.792,495.276,733.137,477.722,757.279,453.665C759.987,450.966,762.299,448.759,762.418,448.759C762.537,448.759,762.629,468.277,762.623,492.132ZM740.263,723.103L740.234,877.215L739.046,880.379C735.241,890.510,724.675,899.735,707.028,908.334C687.908,917.651,663.846,924.635,632.712,929.906C616.240,932.694,590.649,935.402,570.016,936.540C559.400,937.125,518.851,937.319,512.018,936.817C509.986,936.668,504.173,936.296,499.099,935.990C473.923,934.474,444.585,930.430,422.521,925.437C387.440,917.497,361.785,906.389,348.045,893.190C343.242,888.578,340.554,884.587,338.861,879.561L337.816,876.458L337.816,722.668L337.816,568.877L338.475,569.165C338.837,569.324,342.336,570.863,346.249,572.586C370.140,583.103,406.013,592.071,443.494,596.894C496.144,603.670,555.842,604.530,610.575,599.299C649.726,595.558,680.043,589.848,708.725,580.814C717.523,578.042,733.076,572.173,737.445,569.974C738.521,569.433,739.602,568.990,739.847,568.990C740.092,568.990,740.280,638.341,740.263,723.103ZM490.113,646.384L484.974,646.546L484.965,700.710L484.955,754.875L484.189,758.494C482.907,764.549,479.743,768.739,474.696,771.063L472.061,772.276L466.526,772.276L460.992,772.276L458.528,771.137C453.178,768.664,449.343,763.387,448.090,756.780C447.809,755.295,447.418,750.877,447.222,746.962L446.865,739.846L432.977,739.846L419.090,739.846L419.091,748.415C419.092,757.347,419.802,763.040,421.652,768.955C426.504,784.459,437.168,794.717,452.909,799.023L457.303,800.225L466.790,800.217L476.277,800.209L480.757,798.997C493.280,795.611,502.865,787.634,508.433,775.968C509.679,773.357,511.229,769.205,511.878,766.739L513.058,762.257L513.405,731.936C513.595,715.259,513.740,689.156,513.726,673.929L513.699,646.244L504.475,646.233C499.402,646.227,492.939,646.295,490.113,646.384ZM540.047,646.517C539.623,647.204,539.921,797.344,540.347,797.608C540.523,797.716,547.051,797.838,554.854,797.878L569.041,797.951L569.305,747.493L569.569,697.035L573.598,704.598C580.630,717.794,602.612,759.993,612.424,779.132L621.886,797.588L636.312,797.962C644.246,798.167,651.034,798.234,651.396,798.110L652.055,797.885L652.055,721.933L652.055,645.981L637.560,645.981L623.066,645.981L623.040,694.891L623.013,743.801L620.867,739.582C617.868,733.687,607.265,713.674,590.228,681.754C582.231,666.770,574.724,652.591,573.545,650.246L571.402,645.981L555.890,645.981C545.943,645.981,540.260,646.173,540.047,646.517Z"
                                        style="fill: rgb(43, 43, 43); fill-opacity: 1;" />
                                </g>
                            </g>
                        </g>
                    </g>
                </g>
            </g>
        </g>
    </g>
</svg>